# xmcd
#
# Track frame offsets:
#	150
#	9195
#	21724
#	36806
#	53358
#	65878
#	76712
#	91991
#	102038
#	111027
#	127425
#	141423
#
# Disc length: 2035 seconds
#
# Revision: 2
# Processed by: cddbd v1.4PL0 Copyright (c) Steve Scherf et al.
# Submitted via: EZCDDA 4.3.2
#
DISCID=9d07f10c
DTITLE=Dave Lindholm - Luuttujengi tulee
DYEAR=1900
DGENRE=
TTITLE0=Myyntimies Jack
TTITLE1=Oikein
TTITLE2=Dum Dum Dum
TTITLE3=Huomenna hän tulee
TTITLE4=Pieni ja iso tyttö
TTITLE5=Akrobatiaa
TTITLE6=Toivot kuitenkin
TTITLE7=Laaksossa
TTITLE8=Pumpulista päivää
TTITLE9=Lippu
TTITLE10=Mee jo
TTITLE11=Aculla menee lujaa
EXTD=
EXTT0=
EXTT1=
EXTT2=
EXTT3=
EXTT4=
EXTT5=
EXTT6=
EXTT7=
EXTT8=
EXTT9=
EXTT10=
EXTT11=
PLAYORDER=
